<svg width="24" height="24" viewBox="0 0 24 24" fill="none" xmlns="http://www.w3.org/2000/svg">
<path d="M21 14.6452C21.0361 14.5931 21.0708 14.5392 21.1064 14.4886C22.013 13.1412 22.4981 11.5545 22.5 9.93047C22.515 5.27578 18.5878 1.5 13.7316 1.5C9.49594 1.5 5.9625 4.38234 5.13469 8.20875C5.01051 8.77584 4.94764 9.35463 4.94719 9.93516C4.94719 14.5945 8.72344 18.4716 13.5797 18.4716C14.3517 18.4716 15.3919 18.2395 15.9623 18.083C16.5328 17.9264 17.0981 17.7197 17.2444 17.6639C17.3906 17.6081 17.6194 17.5509 17.8017 17.6034L21.4308 18.6525C21.4627 18.6619 21.4965 18.6627 21.5288 18.6547C21.5611 18.6467 21.5907 18.6303 21.6146 18.6071C21.6384 18.5839 21.6557 18.5548 21.6646 18.5228C21.6735 18.4907 21.6737 18.4568 21.6652 18.4247L20.8345 15.2611C20.7769 15.0267 20.7694 14.9827 21 14.6452V14.6452Z" fill="#16202A"/>
<path d="M14.6503 19.4709C14.2896 19.5286 13.9252 19.5607 13.56 19.567C11.5711 19.567 9.69281 19.042 8.16937 18.0577C7.19487 17.4595 6.34895 16.6737 5.68078 15.7458C4.45828 14.1253 3.79172 12.0656 3.79172 9.91032C3.79172 9.7636 3.79687 9.6225 3.80203 9.48094C3.80389 9.43919 3.79284 9.39788 3.7704 9.36263C3.74795 9.32738 3.71519 9.2999 3.67658 9.28392C3.63796 9.26794 3.59537 9.26424 3.55457 9.27333C3.51378 9.28241 3.47678 9.30384 3.44859 9.33469C2.32619 10.5628 1.64768 12.1315 1.52142 13.7905C1.39515 15.4494 1.82842 17.1028 2.75203 18.4866C2.86781 18.6633 2.93344 18.7997 2.91328 18.8906L2.25281 22.2778C2.24672 22.31 2.24917 22.3433 2.25994 22.3742C2.2707 22.4052 2.28939 22.4328 2.31415 22.4543C2.33891 22.4758 2.36887 22.4904 2.40104 22.4967C2.43321 22.503 2.46647 22.5007 2.4975 22.4902L5.685 21.3539C5.78166 21.3157 5.88491 21.2969 5.98884 21.2987C6.09277 21.3005 6.19532 21.3227 6.29062 21.3642C7.24453 21.7392 8.29969 21.9698 9.35484 21.9698C11.3858 21.9765 13.3422 21.2049 14.8219 19.8136C14.8524 19.7838 14.8727 19.7451 14.8798 19.703C14.8869 19.661 14.8804 19.6177 14.8613 19.5796C14.8422 19.5414 14.8115 19.5103 14.7735 19.4908C14.7356 19.4713 14.6925 19.4643 14.6503 19.4709V19.4709Z" fill="#16202A"/>
</svg>
