<svg width="24" height="24" viewBox="0 0 24 24" fill="none" xmlns="http://www.w3.org/2000/svg">
<path d="M12.2642 15.0996C13.921 15.0996 15.2642 13.7565 15.2642 12.0996C15.2642 10.4428 13.921 9.09961 12.2642 9.09961C10.6073 9.09961 9.26416 10.4428 9.26416 12.0996C9.26416 13.7565 10.6073 15.0996 12.2642 15.0996Z" fill="white"/>
<path d="M23.2722 11.284C22.0319 9.36586 20.4227 7.73648 18.619 6.57164C16.6235 5.28164 14.4204 4.59961 12.2482 4.59961C10.2551 4.59961 8.29521 5.16914 6.42302 6.29227C4.51381 7.43742 2.78412 9.11039 1.28177 11.2643C1.11217 11.5077 1.01877 11.7961 1.01343 12.0927C1.00808 12.3893 1.09105 12.6809 1.25177 12.9302C2.48974 14.8676 4.08302 16.4993 5.85865 17.6482C7.85787 18.9434 10.0094 19.5996 12.2482 19.5996C14.4377 19.5996 16.6455 18.9232 18.6326 17.644C20.4354 16.4829 22.0413 14.8474 23.2769 12.9134C23.4321 12.6698 23.5142 12.3868 23.5133 12.098C23.5125 11.8092 23.4288 11.5267 23.2722 11.284V11.284ZM12.2641 16.5996C11.3741 16.5996 10.5041 16.3357 9.76405 15.8412C9.02403 15.3468 8.44725 14.644 8.10666 13.8217C7.76607 12.9994 7.67695 12.0946 7.85058 11.2217C8.02422 10.3488 8.4528 9.54697 9.08214 8.91763C9.71147 8.28829 10.5133 7.85971 11.3862 7.68608C12.2591 7.51244 13.1639 7.60156 13.9862 7.94215C14.8085 8.28275 15.5113 8.85952 16.0057 9.59954C16.5002 10.3396 16.7641 11.2096 16.7641 12.0996C16.7628 13.2927 16.2882 14.4365 15.4446 15.2801C14.601 16.1237 13.4572 16.5982 12.2641 16.5996V16.5996Z" fill="white"/>
</svg>
