<svg width="24" height="24" viewBox="0 0 24 24" fill="none" xmlns="http://www.w3.org/2000/svg">
<path d="M20.25 3.75H9C8.80109 3.75 8.61032 3.82902 8.46967 3.96967C8.32902 4.11032 8.25 4.30109 8.25 4.5V11.25H15.4392L12.4392 8.25L13.5 7.18922L17.7802 11.4698C17.9207 11.6105 17.9997 11.8012 17.9997 12C17.9997 12.1988 17.9207 12.3895 17.7802 12.5302L13.5 16.8108L12.4392 15.75L15.4392 12.75H8.25V19.5C8.25 19.6989 8.32902 19.8897 8.46967 20.0303C8.61032 20.171 8.80109 20.25 9 20.25H20.25C20.4489 20.25 20.6397 20.171 20.7803 20.0303C20.921 19.8897 21 19.6989 21 19.5V4.5C21 4.30109 20.921 4.11032 20.7803 3.96967C20.6397 3.82902 20.4489 3.75 20.25 3.75ZM3 11.25H8.25V12.75H3V11.25Z" fill="#16202A"/>
</svg>
