<svg width="23" height="23" viewBox="0 0 23 23" fill="none" xmlns="http://www.w3.org/2000/svg">
<path d="M21.4093 10.1995L21.4021 10.1964L2.21689 2.23891C2.05553 2.17137 1.87993 2.14488 1.70582 2.16182C1.53171 2.17875 1.36451 2.23857 1.21918 2.33594C1.06563 2.43655 0.939511 2.57376 0.852157 2.73522C0.764803 2.89667 0.718959 3.07731 0.71875 3.26088V8.35008C0.718836 8.60104 0.806464 8.8441 0.966532 9.03738C1.1266 9.23066 1.34908 9.36205 1.59563 9.40889L12.0593 11.3437C12.1004 11.3515 12.1375 11.3734 12.1642 11.4056C12.1909 11.4378 12.2055 11.4784 12.2055 11.5202C12.2055 11.5621 12.1909 11.6026 12.1642 11.6348C12.1375 11.6671 12.1004 11.689 12.0593 11.6968L1.59607 13.6315C1.3496 13.6783 1.12713 13.8095 0.966992 14.0026C0.806852 14.1957 0.719064 14.4386 0.71875 14.6895V19.7796C0.718631 19.9548 0.762034 20.1274 0.845065 20.2818C0.928096 20.4362 1.04816 20.5675 1.19447 20.6641C1.37048 20.781 1.57703 20.8435 1.78834 20.8438C1.93524 20.8436 2.08064 20.8142 2.216 20.7571L21.4008 12.845L21.4093 12.8409C21.6676 12.7299 21.8876 12.5457 22.0422 12.311C22.1968 12.0762 22.2792 11.8013 22.2792 11.5202C22.2792 11.2391 22.1968 10.9642 22.0422 10.7295C21.8876 10.4948 21.6676 10.3105 21.4093 10.1995V10.1995Z" fill="#16202A"/>
</svg>
